<svg xmlns="http://www.w3.org/2000/svg" width="157.699" height="38.829" viewBox="0 0 157.699 38.829"><defs><style>.a,.b{fill:#fff;}.b{fill-rule:evenodd;}</style></defs><g transform="translate(-90.24 -73.211)"><g transform="translate(140.202 75.767)"><path class="a" d="M780.945,269.1h2.273l-2.249,10.88h-2.708L776,269.1h2.284l1.33,7.936Z" transform="translate(-776 -268.923)"/><path class="a" d="M849.555,269.1v10.88H847.2V269.1Z" transform="translate(-838.816 -268.923)"/><path class="a" d="M884.355,275.517v4.463H882V269.1h4.192q2.084,0,2.084,2.225v1.26a1.632,1.632,0,0,1-.954,1.719,1.288,1.288,0,0,1,.836,1.378v4.309H885.8v-4.121c0-.224-.106-.341-.318-.341h-1.13Zm0-4.828v3.179H885.6a.274.274,0,0,0,.224-.106.35.35,0,0,0,.094-.236v-2.508a.35.35,0,0,0-.094-.235.29.29,0,0,0-.224-.106h-1.248Z" transform="translate(-869.519 -268.923)"/><path class="a" d="M942.9,271.1v-2h5.888v2h-1.766v8.878h-2.355V271.1Z" transform="translate(-923.248 -268.923)"/><path class="a" d="M1005.8,269.1h2.355v8.831q0,2.225-2.084,2.225h-2.084q-2.084,0-2.084-2.225V269.1h2.355v9.031a.349.349,0,0,0,.094.235.289.289,0,0,0,.224.106h.906a.273.273,0,0,0,.224-.106.35.35,0,0,0,.094-.235Z" transform="translate(-975.301 -268.923)"/><path class="a" d="M1073.121,267.7q2.084,0,2.084,2.225v8.831h-2.355v-3.65h-1.7v3.65H1068.8v-8.831q0-2.225,2.084-2.225Zm-1.978,5.581h1.7v-3.65a.351.351,0,0,0-.094-.236.291.291,0,0,0-.224-.106h-1.06a.274.274,0,0,0-.224.106.351.351,0,0,0-.094.236Z" transform="translate(-1034.324 -267.688)"/><path class="a" d="M1140.355,277.99h2.579v1.99H1138V269.1h2.355Z" transform="translate(-1095.376 -268.923)"/><path class="a" d="M1224.14,270.726H1221.9v-.86a.35.35,0,0,0-.094-.236.291.291,0,0,0-.224-.106h-.93a.273.273,0,0,0-.224.106.351.351,0,0,0-.094.236V271.8a.35.35,0,0,0,.094.235.29.29,0,0,0,.224.106h1.519q2.085.035,2.084,2.225v2.343q0,2.226-2.084,2.225h-1.99q-2.084,0-2.084-2.225v-1.13h2.237v1.213a.35.35,0,0,0,.094.235.29.29,0,0,0,.224.106h1.048a.274.274,0,0,0,.224-.106.35.35,0,0,0,.094-.235v-2.131a.35.35,0,0,0-.094-.235.291.291,0,0,0-.224-.106h-1.519q-2.084,0-2.084-2.225v-2.167q0-2.225,2.084-2.225h1.872q2.085,0,2.084,2.225Z" transform="translate(-1166.044 -267.688)"/><path class="a" d="M1287.4,269.1h2.355v8.831q0,2.225-2.084,2.225h-2.084q-2.084,0-2.084-2.225V269.1h2.355v9.031a.349.349,0,0,0,.094.235.288.288,0,0,0,.223.106h.907a.274.274,0,0,0,.224-.106.351.351,0,0,0,.094-.235Z" transform="translate(-1223.743 -268.923)"/><path class="a" d="M1352.555,278.656H1350.2v-8.831q0-2.225,2.084-2.225h1.248a1.927,1.927,0,0,1,1.754.812,1.877,1.877,0,0,1,1.755-.812h1.248q2.084,0,2.084,2.225v8.831h-2.355v-9.031a.35.35,0,0,0-.094-.236.29.29,0,0,0-.224-.106h-.907a.274.274,0,0,0-.224.106.349.349,0,0,0-.094.236v9.031h-2.355v-9.031a.351.351,0,0,0-.094-.236.29.29,0,0,0-.224-.106h-.907a.274.274,0,0,0-.224.106.351.351,0,0,0-.094.236v9.031Z" transform="translate(-1282.589 -267.6)"/><path class="a" d="M1452.355,278.656H1450v-8.831q0-2.225,2.084-2.225h1.248a1.927,1.927,0,0,1,1.754.812,1.877,1.877,0,0,1,1.755-.812h1.248q2.083,0,2.084,2.225v8.831h-2.355v-9.031a.351.351,0,0,0-.094-.236.29.29,0,0,0-.224-.106h-.906a.273.273,0,0,0-.224.106.349.349,0,0,0-.094.236v9.031h-2.355v-9.031a.35.35,0,0,0-.094-.236.29.29,0,0,0-.224-.106h-.907a.274.274,0,0,0-.224.106.35.35,0,0,0-.094.236v9.031Z" transform="translate(-1370.639 -267.6)"/><path class="a" d="M1552.355,269.1v10.88H1550V269.1Z" transform="translate(-1458.865 -268.923)"/><path class="a" d="M1579.6,271.1v-2h5.887v2h-1.766v8.878h-2.355V271.1Z" transform="translate(-1484.979 -268.923)"/><path class="a" d="M1644.74,270.726H1642.5v-.86a.35.35,0,0,0-.095-.236.29.29,0,0,0-.223-.106h-.93a.273.273,0,0,0-.224.106.35.35,0,0,0-.094.236V271.8a.35.35,0,0,0,.094.235.29.29,0,0,0,.224.106h1.519q2.084.035,2.084,2.225v2.343q0,2.226-2.084,2.225h-1.99q-2.084,0-2.084-2.225v-1.13h2.237v1.213a.35.35,0,0,0,.094.235.29.29,0,0,0,.224.106h1.048a.274.274,0,0,0,.224-.106.351.351,0,0,0,.094-.235v-2.131a.351.351,0,0,0-.094-.235.29.29,0,0,0-.224-.106h-1.519q-2.084,0-2.084-2.225v-2.167q0-2.225,2.084-2.225h1.872q2.084,0,2.084,2.225Z" transform="translate(-1537.12 -267.688)"/></g><g transform="translate(139.601 90.403)"><path class="a" d="M781.532,397.234h-3.944v-1.507a.61.61,0,0,0-.165-.412.527.527,0,0,0-.4-.177H775.4a.528.528,0,0,0-.4.177.61.61,0,0,0-.165.412v3.415a.61.61,0,0,0,.165.412.528.528,0,0,0,.4.177h2.673q3.674.053,3.674,3.909v4.121c0,2.614-1.225,3.909-3.674,3.909h-3.5q-3.674,0-3.674-3.909v-1.99h3.945V407.9a.61.61,0,0,0,.165.412.527.527,0,0,0,.4.177h1.837a.528.528,0,0,0,.4-.177.61.61,0,0,0,.165-.412v-3.768a.61.61,0,0,0-.165-.412.528.528,0,0,0-.4-.177h-2.673q-3.674,0-3.674-3.909v-3.827c0-2.614,1.224-3.909,3.674-3.909h3.285q3.674,0,3.674,3.909Z" transform="translate(-770.9 -391.9)"/><path class="a" d="M897.492,395.909V407.86c0,2.614-1.225,3.909-3.674,3.909h-3.945q-3.674,0-3.674-3.909V395.909c0-2.614,1.224-3.909,3.674-3.909h3.945Q897.492,391.982,897.492,395.909Zm-4.157,12.411V395.4a.61.61,0,0,0-.165-.412.526.526,0,0,0-.4-.177H890.9a.526.526,0,0,0-.4.177.608.608,0,0,0-.165.412v12.929a.609.609,0,0,0,.165.412.527.527,0,0,0,.4.177h1.872a.527.527,0,0,0,.4-.177A.585.585,0,0,0,893.335,408.319Z" transform="translate(-872.624 -391.988)"/><path class="a" d="M1012.145,406.057v7.524H1008V394.4h8.655v3.591h-4.51v4.592h4.2v3.474Z" transform="translate(-980.082 -394.106)"/><path class="a" d="M1092.8,397.932V394.4h10.373v3.532h-3.109v15.649h-4.144V397.932Z" transform="translate(-1054.898 -394.106)"/><path class="a" d="M1197.913,394.4h3.674l2.226,14.436,1.66-14.436h4.027l-3.108,19.181h-4.71l-1.931-11.763-1.931,11.763h-4.71L1190,394.4h4.027l1.66,14.436Z" transform="translate(-1140.652 -394.106)"/><path class="a" d="M1382.618,391.9q3.674,0,3.674,3.909v15.566h-4.145v-6.429h-2.991v6.429H1375V395.821c0-2.614,1.224-3.909,3.674-3.909h3.944Zm-3.461,9.844h2.991v-6.429a.61.61,0,0,0-.165-.412.527.527,0,0,0-.4-.177h-1.872a.527.527,0,0,0-.4.177.609.609,0,0,0-.165.412v6.429Z" transform="translate(-1303.87 -391.9)"/><path class="a" d="M1501.345,405.727v7.854H1497.2V394.4h7.383q3.674,0,3.674,3.909v2.225c0,1.578-.565,2.59-1.684,3.026a2.286,2.286,0,0,1,1.484,2.426v7.583h-4.168V406.3c0-.4-.188-.589-.565-.589h-1.978Zm0-8.5v5.6h2.19a.528.528,0,0,0,.4-.177.61.61,0,0,0,.165-.412v-4.416a.61.61,0,0,0-.165-.412.528.528,0,0,0-.4-.177h-2.19Z" transform="translate(-1411.681 -394.106)"/><path class="a" d="M1617.756,410.143h4.593v3.438H1613.6V394.4h8.749v3.379h-4.593v4.51h4.3v3.262h-4.3Z" transform="translate(-1514.375 -394.106)"/></g><g transform="translate(90.24 73.211)"><g transform="translate(0 0)"><path class="b" d="M101.179,109.367c4.058-1.032,5.964-4.454,6.757-5.882a2.336,2.336,0,0,1,.51-.749l.05-.031.063-.013a42.458,42.458,0,0,1,8.462-.113c3.253.151,6.461.3,8.386-.189,2.957-.742,3.146-4.574,3.378-9.28.063-1.252.126-2.567.252-3.913.145-1.617.283-3.36.422-5.1.076-.944.151-1.881.22-2.768.453-5.486.069-7-4.039-7.342-1.686-.138-3.957-.094-7-.044-2.02.038-4.379.082-7.134.082-1.567,0-3.378-.044-5.278-.094a103.229,103.229,0,0,0-12.079.132c-3.517.377-3.529,4-3.089,8.091.063.585.145,1.239.226,1.894.107.874.214,1.755.3,2.661.164,1.78.3,3.423.428,5.058.076.944.151,1.887.233,2.863.044.5.069,1.038.094,1.585.1,2.133.2,4.278,1.516,5.411,1.233,1.063,2.73.95,4.272.83a10.128,10.128,0,0,1,3.139.094c1.422.34,1.46,1.837,1.076,3.448a22.934,22.934,0,0,1-1.019,3.007l-.151.359Zm7.292-5.587c-.868,1.567-3.007,5.4-7.719,6.31l-.5.094.157-.491c.076-.226.2-.535.34-.906a22.636,22.636,0,0,0,.994-2.925c.308-1.3.327-2.485-.623-2.712a9.65,9.65,0,0,0-2.951-.076c-1.667.126-3.284.245-4.712-.981-1.516-1.3-1.623-3.586-1.73-5.845h0c-.025-.516-.05-1.032-.094-1.56-.082-.937-.157-1.9-.233-2.869-.132-1.7-.271-3.41-.422-5.052-.076-.83-.189-1.736-.3-2.642-.075-.623-.151-1.239-.226-1.906-.478-4.417-.428-8.33,3.636-8.77a104.671,104.671,0,0,1,12.161-.132c1.9.044,3.712.094,5.266.094,2.743,0,5.1-.044,7.122-.082,3.064-.057,5.36-.1,7.053.044,4.656.384,5.1,2.038,4.605,8-.076.95-.151,1.856-.226,2.768-.132,1.648-.264,3.309-.422,5.1-.12,1.321-.182,2.636-.245,3.888-.245,4.958-.447,9-3.844,9.846-2.007.5-5.266.352-8.563.208a43.847,43.847,0,0,0-8.235.088C108.716,103.34,108.609,103.529,108.47,103.78Z" transform="translate(-90.24 -73.211)"/></g></g><g transform="translate(92.828 75.767)"><path class="b" d="M510.131,329.572a1.842,1.842,0,1,0,1.674,1.894A1.832,1.832,0,0,0,510.131,329.572Z" transform="translate(-484.417 -315.992)"/><path class="b" d="M392.31,417.8a1.5,1.5,0,1,0,1.491,1.51A1.494,1.494,0,0,0,392.31,417.8Z" transform="translate(-374.479 -398.676)"/><path class="b" d="M152.334,114.037c-5.033,0-12.683-.472-17.4.038-5.127.554-3.372,7.26-2.837,12.985.252,2.693.434,5.291.654,7.921s-.044,5.694,1.718,7.2c2.177,1.869,4.951.377,7.537.994,2.428.579-.076,5.631-.491,6.933,5.631-1.082,7.493-6.53,7.915-6.8,4.417-.812,13.042.654,16.867-.308,4-1,3.271-6.977,3.857-13.457.239-2.636.434-5.272.648-7.864C171.592,112.275,169.988,114.037,152.334,114.037Zm-7.82,14.369c-.2.157-.39.315-.591.466a.578.578,0,0,1-.849-.05c-.3-.289-.591-.585-.881-.881a.591.591,0,0,1-.057-.856c.157-.2.308-.4.472-.591a.123.123,0,0,0,.019-.151q-.208-.472-.4-.944a.127.127,0,0,0-.12-.094c-.271-.025-.547-.057-.818-.094a.547.547,0,0,1-.44-.34c-.019-.038-.031-.075-.05-.113v-1.6a.637.637,0,0,1,.629-.472c.214-.013.422-.044.635-.069.063-.006.088-.031.113-.094.132-.346.264-.692.409-1.038a.131.131,0,0,0-.019-.157l-.434-.547a.583.583,0,0,1,.05-.849l.887-.887a.574.574,0,0,1,.837-.05c.182.138.359.283.541.422a.144.144,0,0,0,.113.013,5.568,5.568,0,0,1,1.164-.491.114.114,0,0,0,.069-.082c.031-.214.057-.428.076-.648a.582.582,0,0,1,.629-.579h1.29a.558.558,0,0,1,.591.5c.038.233.063.466.088.7a.114.114,0,0,0,.088.113c.371.151.742.308,1.114.459a.147.147,0,0,0,.126-.013c.176-.132.346-.271.522-.409a.568.568,0,0,1,.805.038q.481.462.944.944a.562.562,0,0,1,.031.786c-.138.182-.283.359-.428.535-.044.05-.038.082-.013.138.145.346.289.692.422,1.044a.114.114,0,0,0,.113.088c.252.025.5.05.749.088a.537.537,0,0,1,.472.535c.013.478.006.95,0,1.428a.552.552,0,0,1-.478.535c-.245.038-.5.063-.749.088a.127.127,0,0,0-.12.094q-.208.519-.434,1.038a.133.133,0,0,0,.013.164c.151.182.3.371.434.554a.583.583,0,0,1-.05.849c-.3.3-.6.6-.893.893a.573.573,0,0,1-.818.05c-.2-.151-.39-.3-.579-.459a.123.123,0,0,0-.151-.019c-.346.145-.692.289-1.044.422-.076.031-.113.063-.12.145-.019.252-.057.5-.082.749a.571.571,0,0,1-.579.522h-1.359a.562.562,0,0,1-.572-.5c-.038-.271-.069-.541-.094-.818a.134.134,0,0,0-.1-.126c-.327-.132-.661-.271-.981-.415A.135.135,0,0,0,144.514,128.406Zm8.871,6.386a.566.566,0,0,1-.522.579,1.619,1.619,0,0,1-.252.025c-.094,0-.132.044-.164.132-.075.208-.17.4-.264.6a.115.115,0,0,0,.013.151c.069.082.132.17.2.252a.554.554,0,0,1-.038.724,6.5,6.5,0,0,1-.472.459.538.538,0,0,1-.648.044c-.113-.075-.214-.17-.327-.245a.175.175,0,0,0-.126-.019c-.233.082-.459.176-.686.271a.144.144,0,0,0-.076.094c-.025.12-.031.239-.05.359a.557.557,0,0,1-.56.472c-.189,0-.371,0-.56-.006a.571.571,0,0,1-.591-.535c-.019-.138.013-.3-.057-.4s-.233-.107-.352-.157a2.794,2.794,0,0,1-.308-.151.116.116,0,0,0-.157.013,2.81,2.81,0,0,1-.271.208.559.559,0,0,1-.742-.05c-.145-.138-.283-.277-.415-.422a.556.556,0,0,1-.044-.73,3.432,3.432,0,0,1,.227-.283.115.115,0,0,0,.019-.151c-.088-.189-.164-.384-.239-.579a.127.127,0,0,0-.12-.094c-.107-.013-.22-.025-.327-.044a.56.56,0,0,1-.5-.56c-.006-.208,0-.422.013-.629a.562.562,0,0,1,.522-.528,1.027,1.027,0,0,1,.195-.019c.151.013.214-.057.252-.2a3.306,3.306,0,0,1,.214-.516.153.153,0,0,0-.019-.2c-.063-.076-.126-.151-.182-.233a.555.555,0,0,1,.05-.723,6.316,6.316,0,0,1,.466-.453,1.64,1.64,0,0,1,.352-.164c.006.013.006.019.013.031a.52.52,0,0,1,.409.17.322.322,0,0,0,.472.063,3.46,3.46,0,0,1,.541-.214.137.137,0,0,0,.082-.094,2.2,2.2,0,0,0,.044-.283.564.564,0,0,1,.566-.491c.2,0,.39,0,.585.006a.567.567,0,0,1,.566.51c.013.088.019.182.025.271,0,.063.025.088.088.113.226.094.453.189.679.3a.122.122,0,0,0,.151-.013c.069-.057.145-.113.22-.164a.551.551,0,0,1,.736.057c.145.145.289.289.428.447a.539.539,0,0,1,.05.667,2.314,2.314,0,0,1-.214.277c-.05.05-.038.094-.013.151.088.208.17.421.245.635a.127.127,0,0,0,.12.094,1.832,1.832,0,0,1,.371.063.548.548,0,0,1,.4.547C153.391,134.421,153.385,134.609,153.385,134.792Zm8.7-5.341a.638.638,0,0,1-.591.491c-.12.013-.239.057-.359.076a.108.108,0,0,0-.1.1c-.088.283-.176.573-.277.856a.118.118,0,0,0,.031.151c.12.12.239.245.352.371a.559.559,0,0,1,.031.749c-.2.252-.409.491-.617.73a.561.561,0,0,1-.723.113c-.157-.094-.315-.2-.466-.308a.106.106,0,0,0-.138-.006c-.271.145-.547.283-.824.415a.111.111,0,0,0-.082.12c0,.176-.006.359-.019.535a.569.569,0,0,1-.528.56c-.308.031-.623.057-.931.082a.568.568,0,0,1-.6-.447q-.066-.274-.113-.547a.134.134,0,0,0-.113-.126c-.271-.082-.535-.17-.8-.252a.151.151,0,0,0-.126.025c-.138.12-.264.252-.4.371a.559.559,0,0,1-.774.025c-.245-.2-.484-.4-.724-.61a.565.565,0,0,1-.1-.73c.1-.164.208-.321.315-.472a.123.123,0,0,0,.006-.151c-.132-.233-.252-.466-.371-.7-.031-.063-.063-.094-.132-.094q-.274,0-.547-.019a.54.54,0,0,1-.541-.478c-.044-.34-.069-.679-.088-1.025a.555.555,0,0,1,.453-.566c.164-.038.333-.069.5-.1a.127.127,0,0,0,.113-.1c.082-.289.17-.572.252-.862a.151.151,0,0,0-.025-.126c-.113-.132-.239-.258-.359-.384a.541.541,0,0,1-.05-.717c.214-.277.44-.547.673-.805a.542.542,0,0,1,.679-.082c.151.094.3.189.44.289a.113.113,0,0,0,.132,0c.289-.157.573-.308.868-.453.057-.031.088-.057.088-.126,0-.157.006-.315.013-.466a.554.554,0,0,1,.51-.547c.3-.031.6-.057.912-.076a.585.585,0,0,1,.661.51c.031.132.057.271.082.4a.12.12,0,0,0,.094.107c.308.094.61.2.919.3a.143.143,0,0,0,.113-.019c.113-.094.22-.2.327-.3a.574.574,0,0,1,.78-.038c.245.2.484.4.724.61a.554.554,0,0,1,.1.736c-.088.138-.176.277-.27.409a.123.123,0,0,0-.006.145c.138.264.271.522.4.793a.12.12,0,0,0,.126.082q.245,0,.491.019a.552.552,0,0,1,.528.478c.031.252.05.51.069.761l.019.113C162.086,129.28,162.086,129.369,162.086,129.45Z" transform="translate(-131.376 -113.838)"/><path class="b" d="M350.591,240.177a2.253,2.253,0,1,0-2.265,2.221A2.25,2.25,0,0,0,350.591,240.177Z" transform="translate(-332.578 -230.095)"/></g></g></svg>